<?xml version="1.0" encoding="utf-8"?><!-- Uploaded to: SVG Repo, www.svgrepo.com, Generator: SVG Repo Mixer Tools -->
<svg version="1.1" id="Uploaded to svgrepo.com" xmlns="http://www.w3.org/2000/svg" xmlns:xlink="http://www.w3.org/1999/xlink" 
	 width="800px" height="800px" viewBox="0 0 32 32" xml:space="preserve">
<style type="text/css">
	.puchipuchi_een{fill:#111918;}
</style>
<path class="puchipuchi_een" d="M14,6v20c0,1.1-0.9,2-2,2H8c-1.1,0-2-0.9-2-2V6c0-1.1,0.9-2,2-2h4C13.1,4,14,4.9,14,6z M24,4h-4
	c-1.1,0-2,0.9-2,2v20c0,1.1,0.9,2,2,2h4c1.1,0,2-0.9,2-2V6C26,4.9,25.1,4,24,4z"/>
</svg>